<svg width="31" height="30" viewBox="0 0 31 30" fill="none" xmlns="http://www.w3.org/2000/svg">
<path d="M11.1892 0.736531C11.2943 0.801314 11.3859 0.886775 11.4589 0.988034C11.5318 1.08929 11.5847 1.20436 11.6145 1.32667C11.6443 1.44899 11.6503 1.57614 11.6324 1.70087C11.6145 1.82561 11.5728 1.94548 11.5099 2.05364L6.76357 10.2001H23.9778L19.2296 2.05364C19.1026 1.83519 19.065 1.5737 19.1251 1.32669C19.1852 1.07969 19.3382 0.867399 19.5503 0.736531C19.7624 0.605664 20.0163 0.566936 20.2561 0.628868C20.4959 0.690799 20.7021 0.848317 20.8291 1.06677L26.1515 10.2001H29.3524C29.5996 10.2001 29.8367 10.3013 30.0115 10.4813C30.1863 10.6613 30.2845 10.9055 30.2845 11.1601V13.0801C30.2845 13.3347 30.1863 13.5789 30.0115 13.7589C29.8367 13.939 29.5996 14.0401 29.3524 14.0401H1.38901C1.1418 14.0401 0.90471 13.939 0.729905 13.7589C0.5551 13.5789 0.456896 13.3347 0.456896 13.0801V11.1601C0.456896 10.9055 0.5551 10.6613 0.729905 10.4813C0.90471 10.3013 1.1418 10.2001 1.38901 10.2001H4.58988L9.90851 1.06677C9.97141 0.958585 10.0544 0.864225 10.1527 0.789077C10.251 0.713928 10.3628 0.659465 10.4815 0.628798C10.6003 0.598131 10.7237 0.591862 10.8448 0.610347C10.966 0.628832 11.0842 0.67171 11.1892 0.736531ZM6.78407 27.48L4.02502 15.9601H2.21672L5.05967 28.2979C5.13329 28.612 5.30734 28.8915 5.55384 29.0914C5.80034 29.2913 6.10495 29.3999 6.41868 29.4H24.3264C24.6405 29.4004 24.9455 29.2919 25.1924 29.092C25.4393 28.892 25.6136 28.6123 25.6873 28.2979L28.5247 15.9601H26.7126L23.9554 27.48H6.78407Z" fill="black"/>
</svg>
